<svg width="14" height="14" viewBox="0 0 14 14" fill="none" xmlns="http://www.w3.org/2000/svg">
<path d="M5.76953 1.23047C5.88279 1.23047 5.97461 1.13865 5.97461 1.02539C5.97461 0.912129 5.88279 0.820312 5.76953 0.820312C5.65627 0.820312 5.56445 0.912129 5.56445 1.02539C5.56445 1.13865 5.65627 1.23047 5.76953 1.23047Z" fill="white"/>
<path d="M8.23047 1.23047C8.34373 1.23047 8.43555 1.13865 8.43555 1.02539C8.43555 0.912129 8.34373 0.820312 8.23047 0.820312C8.11721 0.820312 8.02539 0.912129 8.02539 1.02539C8.02539 1.13865 8.11721 1.23047 8.23047 1.23047Z" fill="white"/>
<path d="M6.58984 1.23047H7.41016C7.52344 1.23047 7.61523 1.13865 7.61523 1.02539C7.61523 0.912133 7.52344 0.820312 7.41016 0.820312H6.58984C6.47656 0.820312 6.38477 0.912133 6.38477 1.02539C6.38477 1.13865 6.47656 1.23047 6.58984 1.23047Z" fill="white"/>
<path d="M11.3066 0H2.69336C2.12795 0 1.66797 0.459977 1.66797 1.02539V12.9746C1.66797 13.54 2.12795 14 2.69336 14H11.3066C11.8721 14 12.332 13.54 12.332 12.9746V1.02539C12.332 0.459977 11.8721 0 11.3066 0ZM11.9219 12.9746C11.9219 13.3139 11.6459 13.5898 11.3066 13.5898H2.69336C2.35413 13.5898 2.07812 13.3139 2.07812 12.9746V1.02539C2.07812 0.686137 2.35413 0.410156 2.69336 0.410156H11.3066C11.6459 0.410156 11.9219 0.686137 11.9219 1.02539V12.9746Z" fill="white"/>
<path d="M11.3066 1.64062H2.69336C2.58007 1.64062 2.48828 1.73245 2.48828 1.8457V6.58984C2.48828 6.7031 2.58007 6.79492 2.69336 6.79492C2.80664 6.79492 2.89844 6.7031 2.89844 6.58984V2.05078H11.1016V11.9492H2.89844V7.41016C2.89844 7.2969 2.80664 7.20508 2.69336 7.20508C2.58007 7.20508 2.48828 7.2969 2.48828 7.41016V12.1543C2.48828 12.2676 2.58007 12.3594 2.69336 12.3594H11.3066C11.4199 12.3594 11.5117 12.2676 11.5117 12.1543V1.8457C11.5117 1.73245 11.4199 1.64062 11.3066 1.64062Z" fill="white"/>
</svg>
