<svg width="20" height="20" viewBox="0 0 20 20" fill="none" xmlns="http://www.w3.org/2000/svg">
<g opacity="0.6">
<g clip-path="url(#clip0)">
<path d="M10.0004 6.25792V2.49948C10.0007 2.26935 10.1874 2.08302 10.4176 2.08325C10.5009 2.08333 10.5823 2.10845 10.6513 2.15529L19.8183 8.40549C20.0084 8.53522 20.0573 8.79445 19.9276 8.98454C19.8983 9.02747 19.8612 9.06454 19.8183 9.09384L10.6513 15.344C10.4609 15.4734 10.2018 15.4239 10.0725 15.2336C10.0256 15.1646 10.0006 15.0832 10.0004 14.9999V11.2622C5.26111 11.5356 0.88014 16.3632 0.83346 17.4824V17.5066C0.829826 17.7341 0.644312 17.9167 0.416765 17.9166C0.18664 17.9166 7.24792e-05 17.7301 7.24792e-05 17.4999V17.4791C0.083395 12.8648 3.59183 6.52293 10.0004 6.25792Z" fill="white"/>
</g>
</g>
<defs>
<clipPath id="clip0">
<rect width="20" height="20" transform="matrix(-1 0 0 1 20 0)" fill="white"/>
</clipPath>
</defs>
</svg>
