<svg width="20" height="20" viewBox="0 0 20 20" fill="none" xmlns="http://www.w3.org/2000/svg">
<g opacity="0.6">
<g clip-path="url(#clip0)">
<path d="M9.9996 6.25792V2.49948C9.99932 2.26935 9.81256 2.08302 9.58243 2.08325C9.49907 2.08333 9.41766 2.10845 9.34871 2.15529L0.18173 8.40549C-0.00835425 8.53522 -0.0573012 8.79445 0.0724297 8.98454C0.101728 9.02747 0.138799 9.06454 0.18173 9.09384L9.34871 15.344C9.53907 15.4734 9.79822 15.4239 9.92752 15.2336C9.97436 15.1646 9.99944 15.0832 9.99956 14.9999V11.2622C14.7389 11.5356 19.1199 16.3632 19.1665 17.4824V17.5066C19.1702 17.7341 19.3557 17.9167 19.5832 17.9166C19.8134 17.9166 19.9999 17.7301 19.9999 17.4999V17.4791C19.9166 12.8648 16.4082 6.52293 9.9996 6.25792Z" fill="white"/>
</g>
</g>
<defs>
<clipPath id="clip0">
<rect width="20" height="20" fill="white"/>
</clipPath>
</defs>
</svg>
