<svg width="16" height="16" viewBox="0 0 16 16" fill="none" xmlns="http://www.w3.org/2000/svg">
<path d="M14.25 0.5H1.75C1.4186 0.500397 1.10089 0.63222 0.866555 0.866555C0.63222 1.10089 0.500397 1.4186 0.5 1.75V11.25C0.500397 11.5814 0.63222 11.8991 0.866555 12.1334C1.10089 12.3678 1.4186 12.4996 1.75 12.5H5.88925L5.32675 14H4.75C4.55109 14 4.36032 14.079 4.21967 14.2197C4.07902 14.3603 4 14.5511 4 14.75V15.25C4 15.3163 4.02634 15.3799 4.07322 15.4268C4.12011 15.4737 4.1837 15.5 4.25 15.5H11.75C11.8163 15.5 11.8799 15.4737 11.9268 15.4268C11.9737 15.3799 12 15.3163 12 15.25V14.75C12 14.5511 11.921 14.3603 11.7803 14.2197C11.6397 14.079 11.4489 14 11.25 14H10.6733L10.1108 12.5H14.25C14.5814 12.4996 14.8991 12.3678 15.1334 12.1334C15.3678 11.8991 15.4996 11.5814 15.5 11.25V1.75C15.4996 1.4186 15.3678 1.10089 15.1334 0.866555C14.8991 0.63222 14.5814 0.500397 14.25 0.5ZM1.75 1H14.25C14.4489 1 14.6397 1.07902 14.7803 1.21967C14.921 1.36032 15 1.55109 15 1.75V9.5H1V1.75C1 1.55109 1.07902 1.36032 1.21967 1.21967C1.36032 1.07902 1.55109 1 1.75 1ZM11.5 14.75V15H4.5V14.75C4.5 14.6837 4.52634 14.6201 4.57322 14.5732C4.62011 14.5263 4.6837 14.5 4.75 14.5H11.25C11.3163 14.5 11.3799 14.5263 11.4268 14.5732C11.4737 14.6201 11.5 14.6837 11.5 14.75ZM10.1392 14H5.86075L6.42325 12.5H9.57675L10.1392 14ZM14.25 12H1.75C1.55109 12 1.36032 11.921 1.21967 11.7803C1.07902 11.6397 1 11.4489 1 11.25V10H15V11.25C15 11.4489 14.921 11.6397 14.7803 11.7803C14.6397 11.921 14.4489 12 14.25 12Z" fill="white"/>
<path d="M8.00001 10.25C7.85167 10.25 7.70666 10.294 7.58333 10.3764C7.45999 10.4588 7.36386 10.5759 7.30709 10.713C7.25032 10.85 7.23547 11.0008 7.26441 11.1463C7.29335 11.2918 7.36478 11.4254 7.46967 11.5303C7.57456 11.6352 7.7082 11.7067 7.85369 11.7356C7.99918 11.7645 8.14998 11.7497 8.28702 11.6929C8.42407 11.6362 8.5412 11.54 8.62362 11.4167C8.70603 11.2933 8.75002 11.1483 8.75002 11C8.75002 10.8011 8.671 10.6103 8.53034 10.4697C8.38969 10.329 8.19892 10.25 8.00001 10.25ZM8.00001 11.25C7.95056 11.25 7.90223 11.2353 7.86111 11.2079C7.82 11.1804 7.78796 11.1414 7.76904 11.0957C7.75011 11.05 7.74516 10.9997 7.75481 10.9512C7.76446 10.9027 7.78827 10.8582 7.82323 10.8232C7.85819 10.7883 7.90274 10.7645 7.95123 10.7548C7.99973 10.7452 8.05 10.7501 8.09568 10.769C8.14136 10.788 8.18041 10.82 8.20788 10.8611C8.23535 10.9022 8.25001 10.9506 8.25001 11C8.25001 11.0663 8.22367 11.1299 8.17679 11.1768C8.1299 11.2237 8.06631 11.25 8.00001 11.25Z" fill="white"/>
</svg>
