<svg width="13" height="13" viewBox="0 0 13 13" fill="none" xmlns="http://www.w3.org/2000/svg">
<path d="M7.58327 0.650024H5.41661C5.29702 0.650024 5.19995 0.747092 5.19995 0.866682C5.19995 0.986271 5.29702 1.08334 5.41661 1.08334H7.58327C7.70286 1.08334 7.79993 0.986271 7.79993 0.866682C7.79993 0.747092 7.70286 0.650024 7.58327 0.650024Z" fill="white"/>
<path d="M9.09982 0.650024H8.88316C8.76357 0.650024 8.6665 0.747092 8.6665 0.866682C8.6665 0.986271 8.76357 1.08334 8.88316 1.08334H9.09982C9.21941 1.08334 9.31648 0.986271 9.31648 0.866682C9.31648 0.747092 9.21941 0.650024 9.09982 0.650024Z" fill="white"/>
<path d="M6.76893 11.05H6.23095C5.90141 11.05 5.63318 11.3183 5.63318 11.6478V11.7525C5.63318 12.082 5.90141 12.35 6.23075 12.35H6.76872C7.09827 12.35 7.3665 12.082 7.3665 11.7525V11.6478C7.3665 11.3183 7.09827 11.05 6.76893 11.05ZM6.93318 11.7525C6.93318 11.843 6.85952 11.9167 6.76895 11.9167H6.23095C6.14018 11.9167 6.0665 11.843 6.0665 11.7525V11.6478C6.0665 11.557 6.14015 11.4834 6.23095 11.4834H6.76872C6.85952 11.4834 6.93318 11.557 6.93318 11.6478V11.7525Z" fill="white"/>
<path d="M9.40016 0H3.59978C3.16796 0 2.81653 0.351432 2.81653 0.78325V12.2168C2.81653 12.6486 3.16796 13 3.59978 13H9.39994C9.83175 13 10.1832 12.6486 10.1832 12.217V0.78325C10.1832 0.351432 9.83178 0 9.40016 0ZM9.74987 12.2168C9.74987 12.4096 9.59301 12.5667 9.40016 12.5667H3.59978C3.40673 12.5667 3.24987 12.4096 3.24987 12.217V0.78325C3.24987 0.590408 3.40673 0.433342 3.59978 0.433342H9.39994C9.59298 0.433342 9.74984 0.590434 9.74984 0.78325V12.2168H9.74987Z" fill="white"/>
<path d="M9.9665 1.30005H3.03319C2.9136 1.30005 2.81653 1.39712 2.81653 1.51671V10.6167C2.81653 10.7363 2.9136 10.8334 3.03319 10.8334H9.96653C10.0861 10.8334 10.1832 10.7363 10.1832 10.6167V1.51671C10.1832 1.39712 10.0861 1.30005 9.9665 1.30005ZM9.74985 10.4H3.24984V1.73339H9.74985V10.4Z" fill="white"/>
</svg>
