<svg width="9" height="9" viewBox="0 0 9 9" fill="none" xmlns="http://www.w3.org/2000/svg">
<path d="M8.64844 4.14844H4.85156V0.351562C4.85156 0.157395 4.69417 0 4.5 0C4.30583 0 4.14844 0.157395 4.14844 0.351562V4.14844H0.351562C0.157395 4.14844 0 4.30583 0 4.5C0 4.69417 0.157395 4.85156 0.351562 4.85156H4.14844V8.64844C4.14844 8.84261 4.30583 9 4.5 9C4.69417 9 4.85156 8.84261 4.85156 8.64844V4.85156H8.64844C8.84261 4.85156 9 4.69417 9 4.5C9 4.30583 8.84261 4.14844 8.64844 4.14844Z" fill="white" fill-opacity="0.7"/>
</svg>
