<svg width="12" height="12" viewBox="0 0 12 12" fill="none" xmlns="http://www.w3.org/2000/svg">
<g opacity="0.5">
<g clip-path="url(#clip0)">
<path d="M9.96799 1.2037H7.82451V0.391312C7.82451 0.175219 7.64931 0 7.43319 0H4.56697C4.35088 0 4.17566 0.175195 4.17566 0.391312V1.2037H2.03218C1.81609 1.2037 1.64087 1.3789 1.64087 1.59502V2.7987C1.64087 3.01479 1.81606 3.19001 2.03218 3.19001H2.15106L2.50871 11.6253C2.51757 11.8348 2.69 12 2.89965 12H9.10047C9.31014 12 9.48255 11.8348 9.49141 11.6253L9.84904 3.18998H9.96794C10.184 3.18998 10.3593 3.01479 10.3593 2.79867V1.59502C10.3593 1.37888 10.1841 1.2037 9.96799 1.2037ZM4.95829 0.782602H7.04188V1.2037H4.95829V0.782602ZM8.72544 11.2174H3.27472L2.93436 3.19001H9.06576L8.72544 11.2174ZM9.57667 2.40738C9.22113 2.40738 2.63649 2.40738 2.42349 2.40738V1.9863H9.57667V2.40738Z" fill="white"/>
<path d="M4.42586 4.38989C4.20976 4.38989 4.03455 4.56509 4.03455 4.7812V9.62605C4.03455 9.84214 4.20974 10.0174 4.42586 10.0174C4.64195 10.0174 4.81717 9.84216 4.81717 9.62605V4.7812C4.81715 4.56509 4.64195 4.38989 4.42586 4.38989Z" fill="white"/>
<path d="M6.00008 4.38989C5.78398 4.38989 5.60876 4.56509 5.60876 4.7812V9.62605C5.60876 9.84214 5.78394 10.0174 6.00008 10.0174C6.21617 10.0174 6.39139 9.84216 6.39139 9.62605V4.7812C6.39137 4.56509 6.21617 4.38989 6.00008 4.38989Z" fill="white"/>
<path d="M7.57417 4.38989C7.35808 4.38989 7.18286 4.56509 7.18286 4.7812V9.62605C7.18286 9.84214 7.35806 10.0174 7.57417 10.0174C7.79029 10.0174 7.96549 9.84216 7.96549 9.62605V4.7812C7.96549 4.56509 7.79029 4.38989 7.57417 4.38989Z" fill="white"/>
</g>
</g>
<defs>
<clipPath id="clip0">
<rect width="12" height="12" fill="white"/>
</clipPath>
</defs>
</svg>
