<svg width="14" height="14" viewBox="0 0 14 14" fill="none" xmlns="http://www.w3.org/2000/svg">
<g opacity="0.7">
<g clip-path="url(#clip0)">
<path d="M13.9834 1.04525C13.953 0.489134 13.5107 0.0469039 12.9546 0.0165523C11.8325 -0.0447524 9.63668 0.0148844 7.53701 1.1009C6.46664 1.65455 5.33461 2.59324 4.4312 3.67627C4.42007 3.68961 4.40924 3.70304 4.3982 3.71641L2.34796 3.87478C2.01049 3.90087 1.7099 4.07776 1.52325 4.36005L0.124505 6.47569C-0.0170537 6.68979 -0.0395576 6.95774 0.0642666 7.19243C0.168118 7.42715 0.381509 7.59072 0.635122 7.63001L2.36245 7.89754C2.35636 7.93112 2.35023 7.96467 2.34463 7.99825C2.28712 8.34223 2.40109 8.6959 2.64954 8.94431L5.05557 11.3504C5.26155 11.5564 5.53988 11.6699 5.82507 11.6699C5.88381 11.6699 5.94287 11.6651 6.00166 11.6553C6.03524 11.6496 6.06879 11.6435 6.10237 11.6374L6.3699 13.3648C6.40919 13.6184 6.57276 13.8318 6.80743 13.9356C6.90507 13.9788 7.0084 14.0002 7.11127 14.0002C7.25573 14.0001 7.39917 13.9581 7.52419 13.8754L9.63983 12.4767C9.92215 12.29 10.099 11.9894 10.125 11.6519L10.2834 9.60174C10.2968 9.59069 10.3102 9.57986 10.3236 9.56874C11.4066 8.66533 12.3454 7.53329 12.899 6.4629C13.9851 4.36314 14.0446 2.1673 13.9834 1.04525ZM9.18743 11.7924L7.16369 13.1304L6.90294 11.447C7.75825 11.1955 8.60435 10.7927 9.41042 10.2531L9.30725 11.5887C9.30082 11.672 9.25713 11.7463 9.18743 11.7924ZM5.63561 10.7703L3.22955 8.36427C3.16816 8.30286 3.13978 8.21659 3.1537 8.13349C3.22523 7.70575 3.33638 7.29858 3.47398 6.915L7.08412 10.5251C6.62343 10.6902 6.21079 10.7886 5.86639 10.8462C5.78316 10.86 5.697 10.8317 5.63561 10.7703ZM2.41115 4.69266L3.74673 4.58949C3.20713 5.39556 2.80436 6.24166 2.55288 7.09697L0.869485 6.83625L2.20752 4.81248C2.25363 4.74276 2.32786 4.69909 2.41115 4.69266ZM9.7982 8.93876C9.13558 9.49146 8.49238 9.89123 7.89951 10.1805L3.81925 6.10024C4.19818 5.3263 4.66064 4.68183 5.06112 4.20173C5.89715 3.19945 6.93695 2.33481 7.91392 1.8295C9.84094 0.832736 11.8712 0.77906 12.91 0.835607C13.0475 0.843099 13.1568 0.952447 13.1643 1.08996C13.2209 2.12869 13.1671 4.15897 12.1704 6.08602C11.6651 7.06295 10.8005 8.10273 9.7982 8.93876Z" fill="white"/>
<path d="M9.59003 6.45973C10.1151 6.45967 10.6404 6.25979 11.0401 5.86005C11.4275 5.47273 11.6407 4.95774 11.6407 4.40999C11.6407 3.86224 11.4274 3.34724 11.0401 2.95992C10.2405 2.16031 8.9395 2.16036 8.13997 2.95992C7.75262 3.34724 7.53931 3.86224 7.53931 4.40999C7.53931 4.95774 7.75264 5.47273 8.13997 5.86005C8.53979 6.25987 9.06479 6.45978 9.59003 6.45973ZM8.71996 3.53993C8.95981 3.30005 9.2749 3.18012 9.58998 3.18012C9.90509 3.18012 10.2202 3.30005 10.46 3.53993C10.6924 3.77233 10.8204 4.08131 10.8204 4.40996C10.8204 4.7386 10.6924 5.04761 10.46 5.28001C9.98031 5.75976 9.19967 5.75973 8.71993 5.28001C8.48753 5.04761 8.35954 4.73863 8.35954 4.40999C8.35954 4.08134 8.48756 3.77233 8.71996 3.53993Z" fill="white"/>
<path d="M0.418321 11.5374C0.523294 11.5374 0.628267 11.4973 0.708329 11.4172L2.04743 10.0781C2.20761 9.91793 2.20761 9.65825 2.04743 9.49806C1.88728 9.33788 1.62757 9.33788 1.46739 9.49806L0.128313 10.8372C-0.0318662 10.9974 -0.0318662 11.257 0.128313 11.4172C0.208376 11.4973 0.313349 11.5374 0.418321 11.5374Z" fill="white"/>
<path d="M3.2747 10.7252C3.11455 10.5651 2.85484 10.5651 2.69466 10.7252L0.120135 13.2998C-0.0400449 13.46 -0.0400449 13.7197 0.120135 13.8798C0.200225 13.9599 0.30517 14 0.410143 14C0.515115 14 0.620088 13.9599 0.70015 13.8798L3.27467 11.3053C3.43488 11.1451 3.43488 10.8854 3.2747 10.7252Z" fill="white"/>
<path d="M3.92188 11.9525L2.58278 13.2916C2.4226 13.4518 2.4226 13.7115 2.58278 13.8717C2.66287 13.9518 2.76784 13.9918 2.87279 13.9918C2.97773 13.9918 3.08273 13.9518 3.16279 13.8717L4.5019 12.5326C4.66207 12.3724 4.66207 12.1127 4.5019 11.9525C4.34174 11.7924 4.08203 11.7924 3.92188 11.9525Z" fill="white"/>
</g>
</g>
<defs>
<clipPath id="clip0">
<rect width="14" height="14" fill="white"/>
</clipPath>
</defs>
</svg>
