<svg width="18" height="18" viewBox="0 0 18 18" fill="none" xmlns="http://www.w3.org/2000/svg">
<g opacity="0.7">
<path d="M17.3551 2.89491L15.1051 0.644906C15.0524 0.592158 14.9808 0.562516 14.9062 0.5625H1.96875C1.59593 0.562947 1.2385 0.711248 0.974874 0.974874C0.711248 1.2385 0.562947 1.59593 0.5625 1.96875V16.0312C0.562947 16.4041 0.711248 16.7615 0.974874 17.0251C1.2385 17.2888 1.59593 17.4371 1.96875 17.4375H16.0312C16.4041 17.4371 16.7615 17.2888 17.0251 17.0251C17.2888 16.7615 17.4371 16.4041 17.4375 16.0312V3.09375C17.4375 3.01916 17.4078 2.94764 17.3551 2.89491ZM13.5 1.125V5.625C13.5 5.69959 13.4704 5.77113 13.4176 5.82387C13.3649 5.87662 13.2933 5.90625 13.2188 5.90625H4.78125C4.70666 5.90625 4.63512 5.87662 4.58238 5.82387C4.52963 5.77113 4.5 5.69959 4.5 5.625V1.125H13.5ZM2.8125 16.875V9.84375C2.8125 9.61997 2.90139 9.40536 3.05963 9.24713C3.21786 9.08889 3.43247 9 3.65625 9H14.3438C14.5675 9 14.7821 9.08889 14.9404 9.24713C15.0986 9.40536 15.1875 9.61997 15.1875 9.84375V16.875H2.8125ZM16.875 16.0312C16.875 16.255 16.7861 16.4696 16.6279 16.6279C16.4696 16.7861 16.255 16.875 16.0312 16.875H15.75V9.84375C15.7496 9.47093 15.6013 9.1135 15.3376 8.84987C15.074 8.58625 14.7166 8.43795 14.3438 8.4375H3.65625C3.28343 8.43795 2.926 8.58625 2.66237 8.84987C2.39875 9.1135 2.25045 9.47093 2.25 9.84375V16.875H1.96875C1.74497 16.875 1.53036 16.7861 1.37213 16.6279C1.21389 16.4696 1.125 16.255 1.125 16.0312V1.96875C1.125 1.74497 1.21389 1.53036 1.37213 1.37213C1.53036 1.21389 1.74497 1.125 1.96875 1.125H3.9375V5.625C3.9375 5.84878 4.02639 6.06339 4.18463 6.22162C4.34286 6.37986 4.55747 6.46875 4.78125 6.46875H13.2188C13.4425 6.46875 13.6571 6.37986 13.8154 6.22162C13.9736 6.06339 14.0625 5.84878 14.0625 5.625V1.125H14.7898L16.875 3.21019V16.0312Z" fill="white"/>
<path d="M10.9688 5.34375H12.6562C12.7308 5.34375 12.8024 5.31412 12.8551 5.26137C12.9079 5.20863 12.9375 5.13709 12.9375 5.0625V1.96875C12.9375 1.89416 12.9079 1.82262 12.8551 1.76988C12.8024 1.71713 12.7308 1.6875 12.6562 1.6875H10.9688C10.8942 1.6875 10.8226 1.71713 10.7699 1.76988C10.7171 1.82262 10.6875 1.89416 10.6875 1.96875V5.0625C10.6875 5.13709 10.7171 5.20863 10.7699 5.26137C10.8226 5.31412 10.8942 5.34375 10.9688 5.34375ZM11.25 2.25H12.375V4.78125H11.25V2.25Z" fill="white"/>
<path d="M13.2188 12.6562H4.78125C4.70666 12.6562 4.63512 12.6859 4.58238 12.7386C4.52963 12.7914 4.5 12.8629 4.5 12.9375C4.5 13.0121 4.52963 13.0836 4.58238 13.1364C4.63512 13.1891 4.70666 13.2188 4.78125 13.2188H13.2188C13.2933 13.2188 13.3649 13.1891 13.4176 13.1364C13.4704 13.0836 13.5 13.0121 13.5 12.9375C13.5 12.8629 13.4704 12.7914 13.4176 12.7386C13.3649 12.6859 13.2933 12.6562 13.2188 12.6562Z" fill="white"/>
<path d="M13.2188 10.9688H4.78125C4.70666 10.9688 4.63512 10.9984 4.58238 11.0511C4.52963 11.1039 4.5 11.1754 4.5 11.25C4.5 11.3246 4.52963 11.3961 4.58238 11.4489C4.63512 11.5016 4.70666 11.5312 4.78125 11.5312H13.2188C13.2933 11.5312 13.3649 11.5016 13.4176 11.4489C13.4704 11.3961 13.5 11.3246 13.5 11.25C13.5 11.1754 13.4704 11.1039 13.4176 11.0511C13.3649 10.9984 13.2933 10.9688 13.2188 10.9688Z" fill="white"/>
<path d="M13.2188 14.3438H4.78125C4.70666 14.3438 4.63512 14.3734 4.58238 14.4261C4.52963 14.4789 4.5 14.5504 4.5 14.625C4.5 14.6996 4.52963 14.7711 4.58238 14.8239C4.63512 14.8766 4.70666 14.9062 4.78125 14.9062H13.2188C13.2933 14.9062 13.3649 14.8766 13.4176 14.8239C13.4704 14.7711 13.5 14.6996 13.5 14.625C13.5 14.5504 13.4704 14.4789 13.4176 14.4261C13.3649 14.3734 13.2933 14.3438 13.2188 14.3438Z" fill="white"/>
</g>
</svg>
