<svg width="10" height="10" viewBox="0 0 10 10" fill="none" xmlns="http://www.w3.org/2000/svg">
<path d="M9.6446 7.8803L7.99872 6.23441C8.29797 5.63591 8.49747 4.93766 8.49747 4.2394C8.49747 1.89526 6.60221 0 4.25807 0C1.91394 0 0.0186768 1.89526 0.0186768 4.2394C0.0186768 6.58354 1.91394 8.4788 4.25807 8.4788C4.95633 8.4788 5.65458 8.2793 6.25308 7.98005L7.89897 9.62593C8.39772 10.1247 9.14585 10.1247 9.6446 9.62593C10.0935 9.12718 10.0935 8.37905 9.6446 7.8803ZM4.25807 7.4813C2.46256 7.4813 1.01618 6.03491 1.01618 4.2394C1.01618 2.44389 2.46256 0.997506 4.25807 0.997506C6.05358 0.997506 7.49996 2.44389 7.49996 4.2394C7.49996 6.03491 6.05358 7.4813 4.25807 7.4813Z" fill="white" fill-opacity="0.31"/>
</svg>
