<svg width="11" height="8" viewBox="0 0 11 8" fill="none" xmlns="http://www.w3.org/2000/svg">
<g opacity="0.7">
<path d="M10.9301 3.29154C10.8318 3.15712 8.49039 0 5.49995 0C2.50951 0 0.167965 3.15712 0.0698029 3.29142C-0.0232676 3.41895 -0.0232676 3.59192 0.0698029 3.71945C0.167965 3.85388 2.50951 7.01099 5.49995 7.01099C8.49039 7.01099 10.8318 3.85386 10.9301 3.71956C11.0233 3.59205 11.0233 3.41895 10.9301 3.29154ZM5.49995 6.28572C3.29717 6.28572 1.38933 4.19028 0.824573 3.50525C1.3886 2.81962 3.29245 0.725272 5.49995 0.725272C7.70262 0.725272 9.61033 2.82035 10.1753 3.50574C9.6113 4.19136 7.70746 6.28572 5.49995 6.28572Z" fill="white"/>
<path d="M5.5 1.32971C4.30026 1.32971 3.32416 2.30581 3.32416 3.50555C3.32416 4.70528 4.30026 5.68139 5.5 5.68139C6.69973 5.68139 7.67584 4.70528 7.67584 3.50555C7.67584 2.30581 6.69973 1.32971 5.5 1.32971ZM5.5 4.95609C4.70013 4.95609 4.04945 4.30539 4.04945 3.50555C4.04945 2.7057 4.70015 2.055 5.5 2.055C6.29984 2.055 6.95054 2.7057 6.95054 3.50555C6.95054 4.30539 6.29986 4.95609 5.5 4.95609Z" fill="white"/>
</g>
</svg>
