<svg width="13" height="13" viewBox="0 0 13 13" fill="none" xmlns="http://www.w3.org/2000/svg">
<path d="M13 3.67377C13 3.57028 12.9434 3.47507 12.8528 3.42566L6.63537 0.0343601C6.55092 -0.0114534 6.44908 -0.0114534 6.36463 0.0343601L0.147238 3.42566C0.0565769 3.47507 0 3.57028 0 3.67377C0 3.77727 0.0565769 3.87248 0.147238 3.92189L2.2835 5.08709L0.147514 6.25175C0.0565769 6.30115 0 6.39637 0 6.49986C0 6.60336 0.0565769 6.69857 0.147238 6.74797L2.28378 7.91291L0.147238 9.07784C0.0565769 9.12724 0 9.22245 0 9.32595C0 9.42944 0.0565769 9.52466 0.147238 9.57406L6.36463 12.9654C6.40672 12.9883 6.45336 12.9999 6.5 12.9999C6.54664 12.9999 6.59328 12.9883 6.63537 12.9654L12.8528 9.57406C12.9434 9.52466 13 9.42944 13 9.32595C13 9.22245 12.9434 9.12724 12.8528 9.07784L10.7162 7.91291L12.8528 6.74797C12.9434 6.69857 13 6.60336 13 6.49986C13 6.39637 12.9434 6.30115 12.8528 6.25175L10.7168 5.08709L12.8528 3.92189C12.9434 3.87248 13 3.77727 13 3.67377ZM6.5 12.3953L0.872665 9.32595L2.87411 8.23484L6.36463 10.1393C6.44908 10.1851 6.55092 10.1851 6.63537 10.1393L10.1259 8.23484L12.1271 9.32595L6.5 12.3953ZM12.1271 6.49986L9.99052 7.66479L6.5 9.56923L3.00948 7.66479C3.0092 7.66479 3.0092 7.66479 3.00893 7.66452L0.872941 6.49986L2.87356 5.40903L6.36463 7.31319C6.40672 7.3361 6.45336 7.34769 6.5 7.34769C6.54664 7.34769 6.59328 7.3361 6.63537 7.31319L10.1264 5.40903L12.1271 6.49986ZM6.5 6.74314L0.872665 3.67377L6.5 0.604407L12.1273 3.67377L6.5 6.74314Z" fill="white"/>
</svg>
