<svg width="11" height="10" viewBox="0 0 11 10" fill="none" xmlns="http://www.w3.org/2000/svg">
<line x1="9.07453" y1="0.217082" x2="2.27456" y2="8.81708" stroke="#BDBDBF" stroke-width="0.7"/>
<g opacity="0.7">
<path d="M10.9301 4.29154C10.8318 4.15712 8.49039 1 5.49995 1C2.50951 1 0.167965 4.15712 0.0698029 4.29142C-0.0232676 4.41895 -0.0232676 4.59192 0.0698029 4.71945C0.167965 4.85388 2.50951 8.01099 5.49995 8.01099C8.49039 8.01099 10.8318 4.85386 10.9301 4.71956C11.0233 4.59205 11.0233 4.41895 10.9301 4.29154ZM5.49995 7.28572C3.29717 7.28572 1.38933 5.19028 0.824573 4.50525C1.3886 3.81962 3.29245 1.72527 5.49995 1.72527C7.70262 1.72527 9.61033 3.82035 10.1753 4.50574C9.6113 5.19136 7.70746 7.28572 5.49995 7.28572Z" fill="white"/>
<path d="M5.5 2.32971C4.30026 2.32971 3.32416 3.30581 3.32416 4.50555C3.32416 5.70528 4.30026 6.68139 5.5 6.68139C6.69973 6.68139 7.67584 5.70528 7.67584 4.50555C7.67584 3.30581 6.69973 2.32971 5.5 2.32971ZM5.5 5.95609C4.70013 5.95609 4.04945 5.30539 4.04945 4.50555C4.04945 3.7057 4.70015 3.055 5.5 3.055C6.29984 3.055 6.95054 3.7057 6.95054 4.50555C6.95054 5.30539 6.29986 5.95609 5.5 5.95609Z" fill="white"/>
</g>
</svg>
